<?xml version="1.0" encoding="utf-8"?>
<!-- Generator: Adobe Illustrator 19.1.0, SVG Export Plug-In . SVG Version: 6.00 Build 0)  -->
<svg version="1.1" id="Layer_1" xmlns="http://www.w3.org/2000/svg" xmlns:xlink="http://www.w3.org/1999/xlink" x="0px" y="0px" width="128" height="128"
	 viewBox="0 0 1024 1024" style="enable-background:new 0 0 1024 1024;" xml:space="preserve">
<style type="text/css">
	.st0{fill:#0389BE;}
</style>
<path class="st0" d="M1012.2,508.8C1012.2,232,787.8,7.6,511,7.6S9.9,232,9.9,508.8C9.9,785.6,234.2,1010,511,1010
	c51.5,0,101.2-7.8,148-22.2c33.4,18.4,71.7,28.8,112.5,28.8c129.1,0,233.8-104.7,233.8-233.8c0-36.6-8.4-71.2-23.4-102
	C1001.5,627.1,1012.2,569.2,1012.2,508.8z M869,240.2h-89c-24.8-57.7-57.4-106.8-95.5-144.2C758.1,127.1,821.7,177.2,869,240.2z
	 M644,487.4c-0.8-72.4-5.4-141.9-13.5-204.5h121.2c22.1,60.6,35.7,130.1,37.9,204.5H644z M789.6,530.2c-0.2,6.5-0.5,13-0.9,19.4
	c-5.7-0.4-11.4-0.7-17.2-0.7c-47.7,0-92,14.3-129,38.8c0.8-18.9,1.3-38.1,1.5-57.6H789.6z M511,61c19.2,0,49.7,61.9,69.9,179.2
	H441.1C461.3,122.9,491.9,61,511,61z M444.9,73.9c-12.7,24.7-23.9,57.3-33.7,98.2c-5,21.2-9.5,44-13.5,68.1H288
	C326.2,158.7,381.3,98.8,444.9,73.9z M378.1,530.2c0.8,74.5,5.7,145.9,14.2,209.8h-120c-23.3-61.8-37.6-133.3-39.8-209.8H378.1z
	 M232.5,487.4c2.2-74.3,15.7-143.9,37.9-204.5h121.2c-8.1,62.5-12.7,132.1-13.5,204.5H232.5z M337.6,96
	c-38.1,37.3-70.7,86.5-95.5,144.2h-89C200.4,177.2,264,127.1,337.6,96z M124.7,283h101c-21.1,61.7-33.8,131-35.9,204.5H63.8
	C67.3,413.1,89.1,343.5,124.7,283z M127.7,740c-37.4-61.8-60.3-133.3-63.9-209.8h125.9c2.1,75.6,15.5,146.8,37.7,209.8H127.7z
	 M157.2,782.7h87.1c24.5,55.4,56.4,102.6,93.3,138.8C266.1,891.4,204.2,843.2,157.2,782.7z M290.6,782.7h108
	c3.7,22.1,7.9,43.2,12.6,62.7c9.7,40.9,21,73.6,33.7,98.2C382.7,919.4,328.7,861.5,290.6,782.7z M511,956.6
	c-18.9,0-48.8-60-68.9-173.8h95.6c0,33.6,7.2,65.6,20,94.5C541.4,929.5,523.7,956.6,511,956.6z M577.2,943.7
	c3-5.8,5.9-12.1,8.7-18.8c2.9,3.7,5.8,7.4,8.9,10.9C589,938.7,583.2,941.4,577.2,943.7z M597.9,626.2
	c-28.3,31.4-48.2,70.5-56.2,113.8H435.3c-8.2-58.7-13.7-128.9-14.5-209.8h180.4C600.9,564.1,599.7,596.1,597.9,626.2z M420.8,487.4
	c0.8-78.5,6-146.8,13.8-204.5h152.8c7.8,57.6,13,125.9,13.8,204.5H420.8z M577.2,73.9c63.6,24.9,118.7,84.8,156.9,166.3H624.3
	c-3.9-24.1-8.4-46.9-13.5-68.1C601.1,131.2,589.8,98.5,577.2,73.9z M904.7,929.3c-15.2,15.2-41.5,8.8-41.5,8.8L708,782.9
	c-6.5,1.7-13,2.6-19.7,2.6c-20,0-36.8-6.8-50.5-20.5c-13.7-13.7-20.5-30.3-20.5-49.9c0-6.8,1-13.6,2.9-20.2l54.2,54.2l53.3-53
	l-54.2-54.2c6.7-1.9,13.3-2.9,20-2.9c19.6,0,36.2,6.8,49.9,20.5c13.7,13.7,20.5,30.3,20.5,49.9c0,7.2-1,14.4-3.1,21.4l153.9,153.9
	C914.6,884.5,919.9,914.1,904.7,929.3z M943.6,624.5c-29.8-32.4-68.6-56.3-112.4-67.8c0.6-8.8,1-17.6,1.2-26.4h125.9
	C956.7,562.6,951.7,594.2,943.6,624.5z M832.4,487.4c-2.1-73.5-14.8-142.8-35.9-204.5h101c35.5,60.6,57.3,130.1,60.8,204.5H832.4z"
	/>
</svg>
